<?xml version="1.0" standalone="no"?><!DOCTYPE svg PUBLIC "-//W3C//DTD SVG 1.1//EN" "http://www.w3.org/Graphics/SVG/1.1/DTD/svg11.dtd"><svg t="1605173197053" class="icon" viewBox="0 0 1024 1024" version="1.1" xmlns="http://www.w3.org/2000/svg" p-id="2050" xmlns:xlink="http://www.w3.org/1999/xlink" width="64" height="64"><defs><style type="text/css"></style></defs><path d="M722.827171 420.33324l175.122945-179.079737a67.777514 67.777514 0 0 1 100.037004 8.51874 68.615423 68.615423 0 0 1 8.332538 93.799238l-175.076394 179.172838 82.347817 84.302938a13.639294 13.639294 0 0 1 0 19.132252l-123.870855 126.989737a363.419679 363.419679 0 0 1-467.134172 59.677729l-198.863695 207.010031a13.639294 13.639294 0 0 1-19.597756 0l-97.75603-99.943903a13.639294 13.639294 0 0 1 0-18.9926l199.422301-207.568637c-75.039391-119.495109-83.278827-349.826936 41.895441-477.794234L371.324418 89.033399a13.639294 13.639294 0 0 1 19.504655 0l98.64049 100.921463L664.545957 19.254214a64.332778 64.332778 0 0 1 91.704466 0 68.708524 68.708524 0 0 1 8.379089 93.892339l-175.076395 179.219388 133.413706 128.013849z" fill="#FF9539" p-id="2051"></path></svg>