<?xml version="1.0" standalone="no"?>
<!DOCTYPE svg PUBLIC "-//W3C//DTD SVG 1.1//EN" "http://www.w3.org/Graphics/SVG/1.1/DTD/svg11.dtd">
<svg class="icon" width="200px" height="200.00px" fill="#5F5F5F" viewBox="0 0 1024 1024" version="1.1" xmlns="http://www.w3.org/2000/svg">
    <path  fill="#5F5F5F" d="M896 977.454545H128C83.083636 977.454545 46.545455 940.916364 46.545455 896V128C46.545455 83.083636 83.083636 46.545455 128 46.545455h768c44.916364 0 81.454545 36.538182 81.454545 81.454545v768c0 44.916364-36.538182 81.454545-81.454545 81.454545zM128 116.363636a11.636364 11.636364 0 0 0-11.636364 11.636364v768c0 6.423273 5.213091 11.636364 11.636364 11.636364h768a11.636364 11.636364 0 0 0 11.636364-11.636364V128a11.636364 11.636364 0 0 0-11.636364-11.636364H128zM762.181818 512a34.909091 34.909091 0 0 0-34.909091-34.909091h-430.545454a34.909091 34.909091 0 0 0 0 69.818182h430.545454a34.909091 34.909091 0 0 0 34.909091-34.909091z" /></svg>